<?xml version="1.0" encoding="UTF-8"?>
<svg width="390px" height="230px" viewBox="0 0 390 230" version="1.1" xmlns="http://www.w3.org/2000/svg" xmlns:xlink="http://www.w3.org/1999/xlink">
    <!-- Generator: Sketch 43.2 (39069) - http://www.bohemiancoding.com/sketch -->
    <title>duck-sprite</title>
    <desc>Created with Sketch.</desc>
    <defs></defs>
    <g id="Page-1" stroke="none" stroke-width="1" fill="none" fill-rule="evenodd">
        <g id="duck_normal_01">
            <g id="Group" transform="translate(12.000000, 9.000000)" fill-rule="nonzero">
                <g>
                    <path d="M97.964,60.67 C97.4715013,60.2132656 96.7023358,60.2409913 96.244,60.732 C87.1351273,45.6351833 70.7864924,36.4100137 53.1545504,36.4175856 C35.5226084,36.4251575 19.1819029,45.6643654 10.086,60.769 C9.86959936,60.516972 9.55992162,60.3639029 9.22827203,60.3450377 C8.89662244,60.3261725 8.57158441,60.4431373 8.328,60.669 C5.382,63.441 0.001,71.322 0.001,91.919 C0.001,113.461 9.811,127.23 14.529,132.605 C14.8836387,133.007076 15.4566496,133.135444 15.9489335,132.9231 C16.4412173,132.710755 16.7410801,132.205877 16.692,131.672 L15.682,120.399 C19.53422,124.689985 24.0919188,128.290554 29.158,131.045 C35.2,134.323 41.416,139.601 44.091,145.933 C46.491,151.608 48.524,152.653 52.491,152.653 C56.339,152.653 58.291,152.014 60.699,146.582 C63.536,140.182 69.844,134.812 76.075,131.62 C81.5622691,128.804439 86.4880474,125.008601 90.609,120.42 L89.598,131.674 C89.5489199,132.207877 89.8487827,132.712755 90.3410665,132.9251 C90.8333504,133.137444 91.4063613,133.009076 91.761,132.607 C96.478,127.231 106.288,113.462 106.288,91.921 C106.292,71.323 100.91,63.442 97.964,60.67 Z" id="Shape" fill="#FFDF47"></path>
                    <ellipse id="Oval" fill="#FDD23F" cx="53.146" cy="63.124" rx="44.952" ry="46.314"></ellipse>
                    <path d="M85.024,16.037 C83.224,15.437 83.224,17.237 79.009,13.63 C75.78,10.862 59.762,0.999 53.146,0.999 C46.53,0.999 30.511,10.862 27.282,13.63 C23.072,17.239 23.072,15.43 21.267,16.037 C16.359,17.672 22.467,23.254 22.467,23.254 L83.819,23.254 C83.819,23.254 89.933,17.673 85.024,16.037 Z" id="Shape" fill="#F49C24"></path>
                    <ellipse id="Oval" fill="#FFDF47" cx="53.146" cy="57.238" rx="44.952" ry="46.314"></ellipse>
                </g>
                <g opacity="0.85" transform="translate(21.639000, 154.225000)" id="Shape" fill="#FFFFFF">
                    <path d="M4.412,1.784 C7.94892508,5.01958373 12.1863861,7.39312319 16.793,8.719 C26.2661671,11.5349353 36.3538329,11.5349353 45.827,8.719 C50.4336279,7.3931568 54.6710962,5.01961324 58.208,1.784 L58.275,1.718 C59.2261068,0.798012059 60.7210903,0.752915658 61.7259204,1.61390247 C62.7307506,2.47488927 62.9153338,3.95911912 62.152,5.04 C60.4035609,7.44328801 58.2545246,9.52771461 55.799,11.202 C53.4036721,12.846276 50.8182233,14.1947387 48.099,15.218 C37.2634797,19.2186349 25.3555203,19.2186349 14.52,15.218 C11.8008047,14.194676 9.21536325,12.8462172 6.82,11.202 C4.36492117,9.52751646 2.21624542,7.44311155 0.468,5.04 C-0.291252471,3.95892687 -0.105229927,2.47799195 0.897807234,1.61828277 C1.9008444,0.758573592 3.39280525,0.801298862 4.345,1.717 L4.412,1.784 Z"></path>
                </g>
            </g>
            <rect id="Rectangle-path" x="0" y="0" width="130" height="230"></rect>
        </g>
        <g id="duck_normal_02" transform="translate(130.000000, 0.000000)">
            <g id="Group" transform="translate(12.803030, 9.000000)" fill-rule="nonzero">
                <path d="M96.479697,60.67 C95.9946604,60.2132656 95.2371489,60.2409913 94.7857576,60.732 C85.8148981,45.6351833 69.7139698,36.4100137 52.3491784,36.4175856 C34.9843871,36.4251575 18.891268,45.6643654 9.93318182,60.769 C9.71990625,60.5172231 9.41496243,60.3643385 9.08842504,60.3454784 C8.76188765,60.3266182 8.44183661,60.4434044 8.20181818,60.669 C5.30045455,63.441 0.000984848485,71.322 0.000984848485,91.919 C0.000984848485,113.461 9.66234848,127.23 14.3078788,132.605 C14.6571442,133.007076 15.2214731,133.135444 15.7062981,132.9231 C16.1911231,132.710755 16.4864426,132.205877 16.4381061,131.672 L15.4424242,120.399 C19.2368822,124.68961 23.7262222,128.289527 28.7162121,131.043 C34.6656818,134.321 40.7884848,139.599 43.4229545,145.931 C45.7865909,151.606 47.7887879,152.651 51.6956818,152.651 C55.4863636,152.651 57.407803,152.012 59.7793182,146.58 C62.5743182,140.18 68.7857576,134.81 74.9233333,131.618 C80.327462,128.802439 85.1786073,125.006601 89.2371212,120.418 L88.2434091,131.674 C88.1950726,132.207877 88.490392,132.712755 88.975217,132.9251 C89.460042,133.137444 90.024371,133.009076 90.3736364,132.607 C95.0201515,127.231 104.681515,113.462 104.681515,91.921 C104.681515,71.323 99.3810606,63.442 96.479697,60.67 Z" id="Shape" fill="#FFDF47"></path>
                <ellipse id="Oval" fill="#FDD23F" cx="52.3407576" cy="63.124" rx="44.2709091" ry="46.314"></ellipse>
                <path d="M83.7357576,16.037 C81.9630303,15.437 81.9630303,17.237 77.8118939,13.63 C74.6318182,10.862 58.8565152,0.999 52.3407576,0.999 C45.825,0.999 30.0487121,10.862 26.8686364,13.63 C22.7224242,17.239 22.7224242,15.43 20.9447727,16.037 C16.1111364,17.672 22.1265909,23.254 22.1265909,23.254 L82.5480303,23.254 C82.5480303,23.254 88.5703788,17.673 83.7357576,16.037 Z" id="Shape" fill="#F49C24"></path>
                <ellipse id="Oval" fill="#FFDF47" cx="52.3407576" cy="57.238" rx="44.2709091" ry="46.314"></ellipse>
                <g opacity="0.85" transform="translate(20.326288, 154.225000)" id="Shape" fill="#FFFFFF">
                    <path d="M5.33,1.784 C8.8133143,5.01961324 12.9865785,7.3931568 17.5234091,8.719 C26.8530351,11.5349929 36.787874,11.5349929 46.1175,8.719 C50.6540217,7.39311628 54.8269567,5.01956827 58.3099242,1.784 L58.3768939,1.718 C59.31359,0.798012059 60.7859222,0.752915658 61.7755277,1.61390247 C62.7651332,2.47488927 62.9469197,3.95911912 62.1951515,5.04 C60.473204,7.44328801 58.3567287,9.52771461 55.9384091,11.202 C53.5793741,12.846276 51.0330988,14.1947387 48.3550758,15.218 C37.6833881,19.2186172 25.9555513,19.2186172 15.2838636,15.218 C12.6059273,14.1945418 10.0596748,12.8460912 7.7005303,11.202 C5.28266207,9.52750099 3.16654443,7.44309847 1.44477273,5.04 C0.693077679,3.95933884 0.874589158,2.47537822 1.86379422,1.61425861 C2.85299927,0.753138999 4.32505172,0.797644453 5.26204545,1.717 L5.33,1.784 Z"></path>
                </g>
                <g opacity="0.65" transform="translate(7.148030, 168.938000)" id="Shape" fill="#FFFFFF">
                    <path d="M5.39401515,0.767 C10.5270455,5.649 17.0053788,8.902 23.8037879,11.018 C37.6483756,15.0944381 52.3495954,15.0861139 66.189697,10.994 C72.9851515,8.874 79.4595455,5.634 84.6063636,0.767 L84.6674242,0.71 C85.6272013,-0.199206924 87.1060244,-0.232650685 88.1047168,0.632265214 C89.1034093,1.49718111 89.3041743,2.98522921 88.5713636,4.091 C86.1821876,7.5688238 83.206902,10.5908985 79.7825758,13.018 C76.4101349,15.4240121 72.7587457,17.3992079 68.9108333,18.899 C53.4966535,24.7757552 36.5048895,24.7672264 21.0964394,18.875 C17.2501173,17.37737 13.600051,15.4045252 10.2286364,13.001 C6.80304346,10.5786792 3.82378571,7.56340293 1.42704545,4.093 C0.690326082,2.98748036 0.889152707,1.49642545 1.88887258,0.629632869 C2.88859245,-0.23715971 4.37007268,-0.202990434 5.33,0.709 L5.39401515,0.767 Z"></path>
                </g>
            </g>
            <rect id="Rectangle-path" x="0.984848485" y="0" width="128.030303" height="230"></rect>
        </g>
        <g id="duck_normal_03" transform="translate(260.000000, 0.000000)">
            <g id="Group" transform="translate(7.000000, 9.000000)" fill-rule="nonzero">
                <g transform="translate(5.139000, 0.000000)">
                    <path d="M98.503,60.444 C98.0063231,59.9883292 97.2357838,60.0159439 96.773,60.506 C87.5246835,45.4478758 71.1180472,36.27507 53.4466464,36.2826173 C35.7752457,36.2901646 19.3764506,45.4769815 10.141,60.543 C9.92204816,60.2916217 9.61090399,60.139257 9.27807287,60.1204317 C8.94524174,60.1016064 8.61890116,60.2179143 8.373,60.443 C5.411,63.205 -5.68434189e-14,71.056 -5.68434189e-14,91.575 C-5.68434189e-14,113.035 9.864,126.752 14.607,132.108 C14.9626983,132.510149 15.5359974,132.639236 16.02973,132.42835 C16.5234627,132.217463 16.8265952,131.714029 16.782,131.179 L15.765,119.949 C19.6463672,124.227616 24.2294988,127.812415 29.317,130.549 C35.391,133.815 41.643,139.073 44.332,145.38 C46.742,151.033 48.789,152.08 52.779,152.08 C56.649,152.08 58.611,151.443 61.032,146.032 C63.886,139.656 70.232,134.307 76.494,131.126 C82.0039024,128.32636 86.9564213,124.544363 91.108,119.966 L90.093,131.18 C90.0484048,131.715029 90.3515373,132.218463 90.84527,132.42935 C91.3390026,132.640236 91.9123017,132.511149 92.268,132.109 C97.012,126.754 106.875,113.036 106.875,91.576 C106.876,71.057 101.465,63.206 98.503,60.444 Z" id="Shape" fill="#FFDF47"></path>
                    <ellipse id="Oval" fill="#FDD23F" cx="53.438" cy="62.889" rx="45.199" ry="46.139"></ellipse>
                    <path d="M85.492,15.98 C83.678,15.38 83.678,17.18 79.444,13.58 C76.197,10.823 60.091,0.997 53.438,0.997 C46.785,0.997 30.679,10.823 27.431,13.58 C23.198,17.18 23.198,15.38 21.383,15.98 C16.448,17.609 22.593,23.17 22.593,23.17 L84.281,23.17 C84.281,23.17 90.431,17.61 85.492,15.98 Z" id="Shape" fill="#F49C24"></path>
                    <ellipse id="Oval" fill="#FFDF47" cx="53.438" cy="57.026" rx="45.199" ry="46.139"></ellipse>
                </g>
                <g opacity="0.85" transform="translate(26.898000, 154.641000)" id="Shape" fill="#FFFFFF">
                    <path d="M4.437,0.781 C8.001388,4.00895718 12.261057,6.37300674 16.886,7.69 C26.4148252,10.4952547 36.5501748,10.4952547 46.079,7.69 C50.7036289,6.37296584 54.9629635,4.00891198 58.527,0.781 L58.596,0.716 C59.624974,-0.260697653 61.246948,-0.232218548 62.241,0.78 C63.0991222,1.65808687 63.2056579,3.0245235 62.494,4.025 C60.7326,6.42263276 58.5717342,8.49926948 56.106,10.164 C53.6950949,11.8030049 51.0957493,13.145989 48.364,14.164 C37.4618336,18.1495451 25.5011664,18.1495451 14.599,14.164 C11.8673293,13.1458116 9.26800432,11.8028382 6.857,10.164 C4.39178622,8.49897763 2.23129591,6.42237673 0.47,4.025 C0.0764364833,3.47181656 -0.0791939069,2.78405847 0.0378668716,2.11532764 C0.15492765,1.4465968 0.534928094,0.852600445 1.093,0.466 C2.10533115,-0.237766362 3.47274503,-0.133769398 4.367,0.715 L4.437,0.781 Z"></path>
                </g>
                <g opacity="0.65" transform="translate(12.442000, 168.302000)" id="Shape" fill="#FFFFFF">
                    <path d="M5.5,0.764 C10.741,5.627 17.355,8.864 24.3,10.976 C38.4400063,15.0369091 53.4385068,15.0285908 67.574,10.952 C74.511,8.839 81.122,5.612 86.374,0.764 L86.436,0.707 C87.5047221,-0.275937157 89.1649484,-0.217566345 90.162,0.838 C90.9943857,1.72380112 91.1019473,3.06811354 90.421,4.075 C87.9769288,7.54480281 84.9392799,10.5557076 81.448,12.969 C78.001139,15.367419 74.2733572,17.3344117 70.348,18.826 C54.6007671,24.680514 37.2724688,24.6719948 21.531,18.802 C17.6058369,17.3120945 13.8780524,15.3467797 10.431,12.95 C6.938545,10.5417345 3.89687675,7.53797707 1.445,4.076 C1.05441616,3.50221341 0.90947756,2.79607205 1.04245951,2.11482129 C1.17544146,1.43357054 1.5753023,0.833775471 2.153,0.449 C3.17329247,-0.233009448 4.52799634,-0.127179667 5.43,0.705 L5.5,0.764 Z"></path>
                </g>
                <g opacity="0.5" transform="translate(0.000000, 186.368000)" id="Shape" fill="#FFFFFF">
                    <path d="M4.534,0.806 C11.376,7.546 20.21,12.043 29.468,14.956 C48.3300052,20.5860866 68.4266755,20.5777443 87.284,14.932 C96.537,12.015 105.369,7.532 112.226,0.806 L112.274,0.76 C113.310461,-0.252803839 114.968386,-0.24478378 115.995,0.778 C116.891963,1.67303946 117.009987,3.08551457 116.274,4.117 C113.023705,8.51951432 109.040284,12.3300814 104.498,15.382 C100.000413,18.4251527 95.1537313,20.9173195 90.062,22.805 C69.5942102,30.2282906 47.1681599,30.2197953 26.706,22.781 C21.6155178,20.8943177 16.7698676,18.4035064 12.273,15.362 C7.73004273,12.3150622 3.74326073,8.51160386 0.486,4.117 C0.0821766572,3.5539946 -0.0794331996,2.85274974 0.037243129,2.16978927 C0.153919458,1.48682879 0.539168723,0.879008836 1.107,0.482 C2.15234674,-0.252198216 3.57269756,-0.136148238 4.485,0.758 L4.534,0.806 Z"></path>
                </g>
            </g>
            <rect id="Rectangle-path" x="0" y="0" width="130" height="230"></rect>
        </g>
    </g>
</svg>